<svg id="Layer_1" data-name="Layer 1" xmlns="http://www.w3.org/2000/svg" viewBox="0 0 609.83 64.9"><path d="M113.1,355.93h19.62l13.66,62.45h-17l-1.32-9.19H117.74l-1.31,9.19h-17Zm13.31,40.64-3.5-23.12-3.42,23.12Z" transform="translate(-99.43 -354.71)"/><path d="M149.09,355.93h17.52v46.95H179.4v15.5H149.09Z" transform="translate(-99.43 -354.71)"/><path d="M184.39,355.93h17.52v46.95h12.78v15.5h-30.3Z" transform="translate(-99.43 -354.71)"/><path d="M263,387.55c0,21.64-6.92,32.06-21.89,32.06-14.63,0-23.39-11.47-23.39-32.41s8.67-32.49,23.74-32.49c10.86,0,17.34,4.82,20.75,15.24L247,375.12c-1.31-4.21-3-6.14-5.87-6.14-4.81,0-5.87,5.61-5.87,17.43s1.06,17.26,5.79,17.26c3.24,0,4.81-2.72,4.81-8.15v-.87h-5.16V382h22.07C262.86,383.87,263,385.71,263,387.55Z" transform="translate(-99.43 -354.71)"/><path d="M289.31,354.71c14.63,0,23.3,11.56,23.3,32.49s-8.67,32.41-23.3,32.41-23.38-11.47-23.38-32.41S274.69,354.71,289.31,354.71Zm0,49c4.73,0,5.7-5.26,5.7-16.91s-1-16.9-5.7-16.9-5.78,5.34-5.78,16.9S284.58,403.67,289.31,403.67Z" transform="translate(-99.43 -354.71)"/><path d="M339.15,354.71c14.62,0,23.29,11.56,23.29,32.49s-8.67,32.41-23.29,32.41-23.39-11.47-23.39-32.41S324.52,354.71,339.15,354.71Zm0,49c4.73,0,5.69-5.26,5.69-16.91s-1-16.9-5.69-16.9-5.78,5.34-5.78,16.9S334.42,403.67,339.15,403.67Z" transform="translate(-99.43 -354.71)"/><path d="M380.66,355.93c10.16,0,17,1,23.21,7.62,4.47,4.91,6.92,12.88,6.92,23.65,0,20.67-8.94,31.18-26.28,31.18H367.7V355.93Zm4.46,46.69h.79c5.78,0,7.27-4.91,7.27-15.77s-1.4-15.94-7.44-15.94h-.62Z" transform="translate(-99.43 -354.71)"/><path d="M422.61,418.38V371.79H412.27V355.93h38.19v15.86H440.13v46.59Z" transform="translate(-99.43 -354.71)"/><path d="M464.56,403.67c2.89,0,4.82-1.93,4.82-4.38,0-2.28-1.93-4-4.73-6.66-7.36-6.83-12.26-11.65-12.26-19.79,0-10.42,7.79-18.13,19.18-18.13a33.16,33.16,0,0,1,14.1,3.59v16.2c-4.21-3.33-7.88-5-10.86-5-2.72,0-4.38,1.58-4.38,3.77,0,2.54,2.1,4,5,6.3,7.88,6.31,12.44,10.6,12.44,19.8,0,12.17-8.32,20.23-21.11,20.23-5,0-9.63-1.58-14.54-4.73V397.62C457.38,401.74,461.58,403.67,464.56,403.67Z" transform="translate(-99.43 -354.71)"/><path d="M492.5,355.93h17.43v22.43h7.44V355.93H534.8v62.45H517.37V394h-7.44v24.43H492.5Z" transform="translate(-99.43 -354.71)"/><path d="M542.59,355.93H560v62.45H542.59Z" transform="translate(-99.43 -354.71)"/><path d="M567.82,355.93h20c13.75,0,21.9,7.54,21.9,19.27q0,10.91-10.51,15.51l12.35,27.67H593.13l-7.88-24.17v24.17H567.82Zm17.43,27.86c4.73-.09,6.83-2.37,6.83-7.45S590,368.9,586,368.9h-.7Z" transform="translate(-99.43 -354.71)"/><path d="M622.56,418.38V371.79H612.22V355.93h38.19v15.86H640.07v46.59Z" transform="translate(-99.43 -354.71)"/><path d="M664.51,403.67c2.89,0,4.81-1.93,4.81-4.38,0-2.28-1.92-4-4.73-6.66-7.35-6.83-12.26-11.65-12.26-19.79,0-10.42,7.8-18.13,19.18-18.13a33.16,33.16,0,0,1,14.1,3.59v16.2c-4.2-3.33-7.88-5-10.86-5-2.71,0-4.37,1.58-4.37,3.77,0,2.54,2.1,4,5,6.3,7.88,6.31,12.43,10.6,12.43,19.8,0,12.17-8.32,20.23-21.1,20.23-5,0-9.64-1.58-14.54-4.73V397.62C657.32,401.74,661.53,403.67,664.51,403.67Z" transform="translate(-99.43 -354.71)"/><path d="M699.54,399.9a9.77,9.77,0,1,1-9.72,9.72A9.64,9.64,0,0,1,699.54,399.9Z" transform="translate(-99.43 -354.71)"/></svg>