<svg id="Layer_1" data-name="Layer 1" xmlns="http://www.w3.org/2000/svg" viewBox="0 0 83.9 61.12"><defs><style>.cls-1{fill:#59bdc5;}.cls-2{fill:#1c1c1b;}</style></defs><path class="cls-1" d="M94.14,39.45c-9.92-7.89-24.61-9.62-35.49-2.62A31.79,31.79,0,0,0,44.39,65.12a33.72,33.72,0,0,0,.6,5.11,26.56,26.56,0,0,0,6.89,14.28.65.65,0,0,0,.52.21,25.56,25.56,0,0,0,15.87,8.46h0c14.11,2.06,28.34-4.58,34.06-18C107.63,62.83,104.84,48,94.14,39.45Z" transform="translate(-21.05 -32.44)"/><path class="cls-2" d="M79.71,55.91c-3.95,1.51-4.69,5.16-7.87,7.36-6.25,4.33-9.05-7.17-13.37-9-3.25-1.39-6.32.26-8.74,2.45-2.61,2.36-4,4.85-7.77,5.41-4.55.67-5.72-3-8.59-5.52-5.41-4.72-12.83-.1-12.29,6.58a.6.6,0,0,0,1.19,0q-.21-5.7,5.94-6.88a8,8,0,0,1,6.06,4.16c.92.93,1.08,1.6,2.19,2.41a8.21,8.21,0,0,0,5.94,1.45c2.53-.37,4.38-2,6.14-3.7,2.7-2.65,6-7.46,10.82-3.41,1.39,1.17,2.14,3.09,3.16,4.56,2.31,3.32,5.84,6.19,9.79,3.57,2.79-1.86,3.85-5.29,6.82-7,6.23-3.63,13,.6,14.17,7.18.2,1.16,2,.67,1.77-.49C93.79,57.86,86.75,53.21,79.71,55.91Z" transform="translate(-21.05 -32.44)"/></svg>