<svg id="Layer_1" data-name="Layer 1" xmlns="http://www.w3.org/2000/svg" viewBox="0 0 59.94 72.62"><defs><style>.cls-1{fill:#941b80;}.cls-2{fill:#1c1c1b;}</style></defs><path class="cls-1" d="M71.28,59.61C68.61,44.23,51.75,25.88,34.69,29.34l0,0a2,2,0,0,0-2.31,2.08c.15,10.87.67,21.74.72,32.62s-.83,21.79-.37,32.6a2.27,2.27,0,0,0,.54,2.94,2.67,2.67,0,0,0,3.11,0,2.23,2.23,0,0,0,.9-.1C54.75,93.86,75,81,71.28,59.61Z" transform="translate(-32.34 -28.3)"/><path class="cls-2" d="M92,58.7C89.85,41.14,71.71,25.84,53.75,28.63a.55.55,0,0,0-.25.95.88.88,0,0,0-.82.84C52,42.26,52,54.18,52,66q0,8.4.18,16.82c.11,5.26-.28,11,.73,16.15-1.22.27-.7,2.15.53,1.89C73.34,96.66,94.86,81.68,92,58.7Zm-37.93,40c.55-4.87-.07-10-.15-14.89q-.16-8.91-.15-17.81c0-11.88.5-23.74.67-35.62a.82.82,0,0,0-.25-.62c8.85.37,17,2.42,24,8.14S89.9,52.07,90.29,61.15C91.17,81.84,72.07,94.56,54.09,98.74Z" transform="translate(-32.34 -28.3)"/></svg>