<svg id="Layer_1" data-name="Layer 1" xmlns="http://www.w3.org/2000/svg" viewBox="0 0 101.51 49.9"><defs><style>.cls-1{fill:#1c1c1b;}</style></defs><path class="cls-1" d="M114.15,86.77a11.57,11.57,0,0,0-8.64-7.13c-5.46-1-7.87,2.06-12.05,4.74-6.18,4-9.45-5.44-15.47-5.47-2.75,0-5.21,1.68-7.36,3.17a30.14,30.14,0,0,1-3.92,2.63c-4.84,2.34-6.47.16-9.31-3.22a10.17,10.17,0,0,0-10.24-3.71C41.93,78.94,38.26,88.69,33,86c-3.7-1.88-5.24-6.72-9.64-7.58-4.72-.92-8.19,3.36-10.51,6.81-.41.61.56,1.38,1,.8,2.35-2.89,5.27-6.6,9.42-5.58,2.64.64,4.1,2.84,5.88,4.7s3.94,3.79,6.78,3.4c4-.54,5.42-4.91,8.18-7.17C48.17,78.06,53,79.21,56.26,83c1.29,1.52,2.05,3.16,4,4,3.53,1.62,7.2-.48,10.08-2.46C74,82,77.53,79.32,82,82.41c1.66,1.15,2.92,2.85,4.67,3.9,3.2,1.91,6.05.93,8.87-1.18,2.31-1.73,4.28-3.74,7.38-3.85a9.8,9.8,0,0,1,9.48,6C112.81,88.35,114.6,87.87,114.15,86.77Z" transform="translate(-12.71 -38.7)"/><path class="cls-1" d="M114.15,73.5a11.57,11.57,0,0,0-8.64-7.13c-5.46-1-7.87,2.06-12.05,4.74-6.18,4-9.45-5.43-15.47-5.47-2.75,0-5.21,1.68-7.36,3.17a30.14,30.14,0,0,1-3.92,2.63c-4.84,2.34-6.47.16-9.31-3.22a10.19,10.19,0,0,0-10.24-3.71c-5.23,1.16-8.9,10.91-14.2,8.22-3.7-1.88-5.24-6.71-9.64-7.58-4.72-.92-8.19,3.36-10.51,6.81-.41.62.56,1.38,1,.8,2.35-2.89,5.27-6.6,9.42-5.58,2.64.64,4.1,2.84,5.88,4.7s3.94,3.79,6.78,3.4c4-.54,5.42-4.91,8.18-7.17,4.07-3.32,8.92-2.17,12.16,1.65,1.29,1.52,2.05,3.16,4,4,3.53,1.62,7.2-.48,10.08-2.46C74,68.77,77.53,66.05,82,69.14c1.66,1.15,2.92,2.85,4.67,3.9,3.2,1.91,6.05.94,8.87-1.18,2.31-1.73,4.28-3.74,7.38-3.85a9.8,9.8,0,0,1,9.48,6C112.81,75.08,114.6,74.6,114.15,73.5Z" transform="translate(-12.71 -38.7)"/><path class="cls-1" d="M114.15,61.22a11.57,11.57,0,0,0-8.64-7.14c-5.46-1-7.87,2.07-12.05,4.75C87.28,62.8,84,53.39,78,53.36c-2.75,0-5.21,1.67-7.36,3.17a31.11,31.11,0,0,1-3.92,2.62c-4.84,2.35-6.47.17-9.31-3.22a10.19,10.19,0,0,0-10.24-3.71c-5.23,1.16-8.9,10.91-14.2,8.22-3.7-1.88-5.24-6.71-9.64-7.57-4.72-.93-8.19,3.36-10.51,6.81-.41.61.56,1.38,1,.79,2.35-2.88,5.27-6.59,9.42-5.58,2.64.65,4.1,2.84,5.88,4.71s3.94,3.78,6.78,3.4c4-.55,5.42-4.92,8.18-7.17,4.07-3.33,8.92-2.18,12.16,1.65,1.29,1.51,2.05,3.16,4,4,3.53,1.61,7.2-.49,10.08-2.47C74,56.49,77.53,53.77,82,56.85c1.66,1.16,2.92,2.86,4.67,3.9,3.2,1.92,6.05.94,8.87-1.17,2.31-1.74,4.28-3.74,7.38-3.86a9.82,9.82,0,0,1,9.48,6C112.81,62.79,114.6,62.32,114.15,61.22Z" transform="translate(-12.71 -38.7)"/><path class="cls-1" d="M114.15,48a11.57,11.57,0,0,0-8.64-7.14c-5.46-1-7.87,2.07-12.05,4.75-6.18,4-9.45-5.44-15.47-5.47-2.75,0-5.21,1.67-7.36,3.17a30.07,30.07,0,0,1-3.92,2.62c-4.84,2.35-6.47.17-9.31-3.21A10.15,10.15,0,0,0,47.16,39c-5.23,1.15-8.9,10.91-14.2,8.21-3.7-1.88-5.24-6.71-9.64-7.57-4.72-.93-8.19,3.36-10.51,6.81-.41.61.56,1.38,1,.8,2.35-2.89,5.27-6.6,9.42-5.59,2.64.65,4.1,2.84,5.88,4.71s3.94,3.78,6.78,3.4c4-.55,5.42-4.92,8.18-7.17,4.07-3.32,8.92-2.18,12.16,1.65,1.29,1.51,2.05,3.16,4,4,3.53,1.62,7.2-.49,10.08-2.47C74,43.22,77.53,40.5,82,43.58c1.66,1.16,2.92,2.86,4.67,3.91,3.2,1.91,6.05.93,8.87-1.18,2.31-1.74,4.28-3.74,7.38-3.86a9.82,9.82,0,0,1,9.48,6C112.81,49.52,114.6,49.05,114.15,48Z" transform="translate(-12.71 -38.7)"/></svg>