<svg id="Layer_1" data-name="Layer 1" xmlns="http://www.w3.org/2000/svg" viewBox="0 0 74.84 80.3"><defs><style>.cls-1{fill:#fff;}</style></defs><path class="cls-1" d="M80,9.47l.12-.31a.71.71,0,0,0-.75-1,.54.54,0,0,0-.74-.42,13.15,13.15,0,0,0-1.82,1.1.64.64,0,0,0-.35.12C54.35,24,31.6,38.08,9.77,53.43l0,0a.72.72,0,0,0-.63,1.29L9.5,55A17.92,17.92,0,0,0,12,62.83a.44.44,0,0,0,0,.75C26.07,73,41.49,80.82,56.78,88c.72.34,1.17-.5.91-1.1a.46.46,0,0,0,.6-.27c4.86-11.23,8.44-23.13,12.52-34.67q5.91-16.77,11.84-33.53a.78.78,0,0,0,.9-1.05A48.31,48.31,0,0,0,80,9.47ZM13.44,63.24a.53.53,0,0,0,.08-.57c-.79-2.24-1.67-4.38-2.4-6.61C24.67,64.93,39,72.84,53.22,80.51a.84.84,0,0,0,.65.07.35.35,0,0,0,.48.26c.55,1.59,1,3.2,1.39,4.84C41.29,78.8,27.76,70.3,13.44,63.24Zm40.85,15a.77.77,0,0,0-.57.62C39.18,71,25.07,62.38,10.79,54,33.51,40.53,55.3,25.19,77.18,10.38a.81.81,0,0,0,.35-.78c.34-.18.67-.37,1-.57q-7,17.9-13.35,36Q62,54,59.06,63C57.42,68,55.34,73.07,54.29,78.23ZM69.43,51.47c-4.07,11.53-8.76,23-12,34.82a.55.55,0,0,0,0,.22l-.13-.1-.41-.19a25.43,25.43,0,0,0-1.64-7c2.26-5,3.56-10.56,5.27-15.71q3-9,6.14-18,6.09-17.34,12.75-34.47a49.11,49.11,0,0,0,2.31,5.69Q75.55,34.1,69.43,51.47Z" transform="translate(-8.78 -7.73)"/><path class="cls-1" d="M70.56,18.41a.57.57,0,0,0-.63.07C62.17,24.71,54.47,31,46.39,36.79q-6.48,4.66-13.13,9.08c-3.73,2.47-8.23,4.58-11.4,7.75-.11.11,0,.34.15.28l.3-.11a.56.56,0,0,0,.2.68C30.83,61,40.77,66.38,50.05,71.37a.8.8,0,0,0,1.14-.45.61.61,0,0,0,.39-.35C58.43,53.49,65,36.3,71.69,19.15,72,18.43,71.06,18,70.56,18.41Zm-20,51.46c-7-4.23-14-8.82-21.16-12.93a.3.3,0,0,0,.14,0c13-9,25.93-18.75,37.43-29.6C61.47,41.46,55.94,55.64,50.58,69.87ZM68.2,24.19l-.12.07c-12.26,11.59-26.2,21-39,31.93a.4.4,0,0,0-.07.51c-1.94-1.11-3.89-2.19-5.86-3.2h0c4-1.62,7.8-4.65,11.39-7q5.77-3.82,11.42-7.85c8.17-5.82,16.25-11.89,23.85-18.45Z" transform="translate(-8.78 -7.73)"/></svg>