<svg id="Layer_1" data-name="Layer 1" xmlns="http://www.w3.org/2000/svg" viewBox="0 0 76.2 59.2"><defs><style>.cls-1{fill:#ea4a8d;}.cls-2{fill:#1c1c1b;}</style></defs><path class="cls-1" d="M86.43,86a1.79,1.79,0,0,0-.2-.81C81.68,76.13,77,67.21,72,58.43c-4.68-8.23-9.19-17-15.25-24.29a.9.9,0,0,0-1.53.18,1.53,1.53,0,0,0-1,.68C50,41.33,46.3,47.93,42.73,54.62c-.09.12-.18.23-.28.34A2.41,2.41,0,0,0,42,56.08c-.77,1.43-1.52,2.87-2.28,4.31C35.15,69,29.94,77.32,25.51,86a1.21,1.21,0,0,0,.08,1.21,1,1,0,0,0,1,1.31c9.58,1.06,19.52.3,29.15.16s19.43-.31,29.14-.49A1.7,1.7,0,0,0,86.43,86Z" transform="translate(-25.39 -33.78)"/><path class="cls-2" d="M101.51,90.84C93.61,71.54,83.74,51.4,70.27,35.3a.71.71,0,0,0-1.18.31.84.84,0,0,0-.85.37C62.15,44.63,56.93,54.05,51.81,63.3,47,72.05,41.94,81,38.23,90.26a.53.53,0,0,0,0,.39.88.88,0,0,0,.82.93c20.25,1.9,41,1.51,61.27.94a.94.94,0,0,0,.9-.69A.74.74,0,0,0,101.51,90.84Zm-61.58-1c4.81-8.73,9-17.81,13.85-26.52,5-9,10.64-17.58,15.85-26.43,5.34,8.43,11.09,16.52,16,25.25A261.85,261.85,0,0,1,99.33,90.57C79.48,91.09,59.76,90.22,39.93,89.89Z" transform="translate(-25.39 -33.78)"/></svg>