<svg id="Layer_1" data-name="Layer 1" xmlns="http://www.w3.org/2000/svg" viewBox="0 0 56.41 28.32"><defs><style>.cls-1{fill:#1c1c1b;}</style></defs><path class="cls-1" d="M91,50.14c-18.12-.79-36.72-1.11-54.8.55a.55.55,0,0,0,0,1.1c18.29-.07,36.5-.66,54.8-.22A.72.72,0,0,0,91,50.14Z" transform="translate(-35.25 -49.49)"/><path class="cls-1" d="M91,52.38c-9.21.26-18.43.57-27.65.78S44.8,53,35.67,53.83a.43.43,0,0,0,0,.86c9.13.67,18.5,0,27.65-.18S81.76,54.08,91,53.7A.66.66,0,0,0,91,52.38Z" transform="translate(-35.25 -49.49)"/><path class="cls-1" d="M90,56.63c-17.94.22-35.84.27-53.78.33a.51.51,0,0,0,0,1A306.65,306.65,0,0,0,90,57.86C90.73,57.79,90.76,56.62,90,56.63Z" transform="translate(-35.25 -49.49)"/><path class="cls-1" d="M88.49,61.14c-17.1-.3-34.24-.6-51.33-.22a.41.41,0,0,0,0,.81c17.09.69,34.23.7,51.33.71A.65.65,0,0,0,88.49,61.14Z" transform="translate(-35.25 -49.49)"/><path class="cls-1" d="M86.49,63.83c-15.73-.12-31.6,0-47.33.34a.48.48,0,0,0,0,1A359.39,359.39,0,0,0,86.49,65,.61.61,0,0,0,86.49,63.83Z" transform="translate(-35.25 -49.49)"/><path class="cls-1" d="M85,67.1a420.5,420.5,0,0,1-43.34.16c-.66,0-.63.93,0,1,14.37,1.59,28.92,1.38,43.34.4C86,68.59,86,67,85,67.1Z" transform="translate(-35.25 -49.49)"/><path class="cls-1" d="M81,70.67c-11.87-.21-24-1-35.87-.08a.36.36,0,0,0,0,.72C57,72.5,69.13,72,81,72.08A.71.71,0,0,0,81,70.67Z" transform="translate(-35.25 -49.49)"/><path class="cls-1" d="M77.52,73.75c-9.57-.52-19.31-.36-28.9-.12a.5.5,0,0,0,0,1c9.58.4,19.32.73,28.9.38A.63.63,0,0,0,77.52,73.75Z" transform="translate(-35.25 -49.49)"/><path class="cls-1" d="M71.56,76.18c-6.31.24-12.63.29-19,.53a.32.32,0,0,0,0,.63,117.55,117.55,0,0,0,19,.17C72.41,77.46,72.43,76.14,71.56,76.18Z" transform="translate(-35.25 -49.49)"/></svg>