<svg id="Layer_1" data-name="Layer 1" xmlns="http://www.w3.org/2000/svg" viewBox="0 0 20.78 57.57"><defs><style>.cls-1{fill:#1c1c1b;}</style></defs><path class="cls-1" d="M73.37,42.09,60.11,34.94c-1.22-.65-2.31,1.2-1.09,1.86l11.37,6.12L58.1,48.34a1.08,1.08,0,0,0,0,1.85,46.54,46.54,0,0,1,11.67,7.4,69.33,69.33,0,0,1-13.71,6,1.09,1.09,0,0,0-.26,2L68,74.78q-7.35,4-14.38,8.61a1.06,1.06,0,0,0,0,1.81c4.35,2.24,8.55,4.72,12.84,7.08a.68.68,0,0,0,.68-1.17,85.3,85.3,0,0,0-10.92-6.88q7-4.44,14.27-8.37a1.09,1.09,0,0,0,0-1.86L58.61,65A71.28,71.28,0,0,0,72.14,58.7,1.08,1.08,0,0,0,72.36,57,48.38,48.38,0,0,0,61.21,49.3l12.16-5.36A1.08,1.08,0,0,0,73.37,42.09Z" transform="translate(-53.11 -34.81)"/></svg>