<svg id="Layer_1" data-name="Layer 1" xmlns="http://www.w3.org/2000/svg" viewBox="0 0 96.13 14.39"><defs><style>.cls-1{fill:#59bdc5;}</style></defs><path class="cls-1" d="M108.49,58.53C105,61.48,101.41,64.2,97.84,67c-3.44-3.14-6.63-6.53-10.08-9.64a1.67,1.67,0,0,0-2.53.59l-.06,0a81.29,81.29,0,0,1-7,5.89c-1.16.84-2.84,1.59-3.79,2.74a40.34,40.34,0,0,0-3.82-3.38,82.06,82.06,0,0,0-7.19-6.39,1.29,1.29,0,0,0-2,.63,63,63,0,0,0-11.13,9.2,80.53,80.53,0,0,1-8.88-8.55c-.07-1.2-1.24-2.3-2.44-1.4q-3.22,2.45-6.43,4.91A31.15,31.15,0,0,0,28.29,65a24.07,24.07,0,0,0-11.14-8.37C15.48,56,14.5,58.51,16,59.39a40.82,40.82,0,0,1,6.2,4.06,36.3,36.3,0,0,1,4.72,5.34c.95,1.21,2.67.19,2.81-1.08,1.78-.72,3.41-2.32,4.87-3.42l4.69-3.54A39.79,39.79,0,0,0,49.08,70a1.6,1.6,0,0,0,2.14-.49,58.68,58.68,0,0,0,6-4.49C59,63.55,61,62.12,62.8,60.58c1.41,1.45,3,2.8,4.45,4.18l2.56,2.39,1.61,1.5c.14.14.36.42.53.63a1.76,1.76,0,0,0,.37.66l.12.15a1.69,1.69,0,0,0,2,.26l.21-.11a1.68,1.68,0,0,0,.81-1.11c1.83-.16,3.72-1.84,5.1-2.83A50,50,0,0,0,86.91,61a94.7,94.7,0,0,0,9.55,9.35,1.76,1.76,0,0,0,2.69-.45,53.21,53.21,0,0,0,11.71-9C112.41,59.35,110.12,57.15,108.49,58.53Z" transform="translate(-15.25 -56.42)"/></svg>