<svg id="Layer_1" data-name="Layer 1" xmlns="http://www.w3.org/2000/svg" viewBox="0 0 65.97 67.24"><defs><style>.cls-1{fill:#1c1c1b;}</style></defs><path class="cls-1" d="M36.35,82.27c-.44.36.15,1.13.62.8,2.55-1.81,5.58-.18,6.5,2.49.21.6,1.22.55,1.17-.16C44.39,81.55,39.07,80.07,36.35,82.27Z" transform="translate(-18.08 -18.74)"/><path class="cls-1" d="M37,75.85a4.33,4.33,0,0,1-4.36,3.73c-.6,0-.58.87,0,.92A5.18,5.18,0,0,0,38.09,76,.58.58,0,0,0,37,75.85Z" transform="translate(-18.08 -18.74)"/><path class="cls-1" d="M31.06,75.19a3.08,3.08,0,0,1-3-1.6,3.3,3.3,0,0,1,.52-3.3c.35-.56-.43-1.11-.89-.69-2.78,2.52,0,7,3.36,6.53C31.64,76.06,31.68,75.15,31.06,75.19Z" transform="translate(-18.08 -18.74)"/><path class="cls-1" d="M23.55,66.55c-.74-1.32-2.27-2.7-3.89-2.55a.49.49,0,0,0-.13,1,5.5,5.5,0,0,1,3.09,2.15,4.5,4.5,0,0,1,.51,3.76c-.13.39.5.68.67.29A5,5,0,0,0,23.55,66.55Z" transform="translate(-18.08 -18.74)"/><path class="cls-1" d="M25.49,62.45a4.34,4.34,0,0,0-6.83-1.91c-.29.26.1.78.42.54a3.56,3.56,0,0,1,5.41,1.65A.52.52,0,0,0,25.49,62.45Z" transform="translate(-18.08 -18.74)"/><path class="cls-1" d="M21.86,47.74c-.28-.61-1.1-.14-1,.43.37,2.34-.09,4.3-2.08,5.75a.43.43,0,0,0,.43.74C21.55,53.47,23,50.21,21.86,47.74Z" transform="translate(-18.08 -18.74)"/><path class="cls-1" d="M25.46,44a4.11,4.11,0,0,0-7.37,2.67.43.43,0,0,0,.86,0,3.18,3.18,0,0,1,5.64-2C25,45.06,25.84,44.47,25.46,44Z" transform="translate(-18.08 -18.74)"/><path class="cls-1" d="M27.63,37.38a3.38,3.38,0,0,1-5-2.33c-.1-.51-.88-.37-.88.12,0,3.11,4.06,5,6.52,3.22C28.83,38,28.27,37,27.63,37.38Z" transform="translate(-18.08 -18.74)"/><path class="cls-1" d="M32.59,30.45c-1.7-1.12-4.72-.91-5.81,1-.16.29.18.69.48.48,1.45-1,3.08-1.74,4.72-.58s1.54,2.95.93,4.56c-.24.64.71,1,1.05.45A4.49,4.49,0,0,0,32.59,30.45Z" transform="translate(-18.08 -18.74)"/><path class="cls-1" d="M37.75,25.12a6.67,6.67,0,0,1-6.89.64c-.59-.29-1.11.57-.52.89a7.39,7.39,0,0,0,8.14-.58C39,25.64,38.32,24.74,37.75,25.12Z" transform="translate(-18.08 -18.74)"/><path class="cls-1" d="M38.41,20.9a.49.49,0,0,0,.5.84,3,3,0,0,1,3.47.43,3,3,0,0,1,.53,3.31.59.59,0,0,0,1.07.45A3.93,3.93,0,0,0,38.41,20.9Z" transform="translate(-18.08 -18.74)"/><path class="cls-1" d="M55.33,22a5,5,0,0,1-6-2.89c-.26-.68-1.35-.41-1.12.31.93,2.94,4.45,5,7.44,3.78A.62.62,0,0,0,55.33,22Z" transform="translate(-18.08 -18.74)"/><path class="cls-1" d="M62.56,29c-1.14-3.26-5.79-4.58-8.39-2.2-.36.33.11,1,.53.68a4.6,4.6,0,0,1,6.85,2C61.81,30,62.76,29.6,62.56,29Z" transform="translate(-18.08 -18.74)"/><path class="cls-1" d="M67.28,24.93a5.32,5.32,0,0,1-6-3.31.44.44,0,0,0-.85.24,5.93,5.93,0,0,0,7.21,4.32A.65.65,0,0,0,67.28,24.93Z" transform="translate(-18.08 -18.74)"/><path class="cls-1" d="M73.25,33.69a3.14,3.14,0,0,1-.81-5c.52-.49-.24-1.2-.76-.77a4.19,4.19,0,0,0,1.09,6.92C73.42,35.08,73.86,34,73.25,33.69Z" transform="translate(-18.08 -18.74)"/><path class="cls-1" d="M77.89,32.72c-.52-.5-1.52.18-1,.8a3.08,3.08,0,0,1,.42,3.66,3,3,0,0,1-3.88.78.47.47,0,0,0-.47.81A4,4,0,0,0,78.13,38,4,4,0,0,0,77.89,32.72Z" transform="translate(-18.08 -18.74)"/><path class="cls-1" d="M80.09,40c-.62-.08-.92.83-.27,1a2.6,2.6,0,0,1,1.64,3.83c-.37.67.56,1.16,1,.58C83.92,43.51,82.37,40.35,80.09,40Z" transform="translate(-18.08 -18.74)"/><path class="cls-1" d="M80.45,51.31c-3.4-.23-1.82-4.43-1.06-6.25.21-.51-.61-.83-.89-.37-1,1.61-1.89,3.61-1.23,5.5a3.22,3.22,0,0,0,3.18,2.37A.63.63,0,0,0,80.45,51.31Z" transform="translate(-18.08 -18.74)"/><path class="cls-1" d="M83,55.81c-1.11,2.25-3.61,3.56-5.94,2-.39-.26-.88.35-.51.65,2.3,1.85,6.85,1,7.49-2.24C84.16,55.65,83.3,55.19,83,55.81Z" transform="translate(-18.08 -18.74)"/><path class="cls-1" d="M82.44,64.4c-1.19-3.22-6.06-4.14-8.13-1.25-.42.58.48,1.22,1,.75a4,4,0,0,1,6.31.86C81.83,65.22,82.63,64.9,82.44,64.4Z" transform="translate(-18.08 -18.74)"/><path class="cls-1" d="M77.76,66.49a6,6,0,0,0-3.26,7.8c.28.58,1.19.17,1-.44A5.64,5.64,0,0,1,78,67.12C78.34,66.92,78.14,66.36,77.76,66.49Z" transform="translate(-18.08 -18.74)"/><path class="cls-1" d="M71.88,76.3a4,4,0,0,1-5.74-2.46c-.2-.63-1.28-.56-1.21.17.32,3.37,4.93,5.13,7.47,3C72.79,76.65,72.29,76.07,71.88,76.3Z" transform="translate(-18.08 -18.74)"/><path class="cls-1" d="M63.71,79.79c-2.25-2-6.79-.57-6.87,2.68a.54.54,0,0,0,1,.14c.62-2.28,3.23-3.72,5.33-2.18C63.59,80.7,64.06,80.09,63.71,79.79Z" transform="translate(-18.08 -18.74)"/><path class="cls-1" d="M52.11,83.25c-2-.82-2.12-3.31-1-4.84.35-.47-.34-1.14-.81-.81-2.37,1.73-1.2,5.88,1.53,6.49A.44.44,0,0,0,52.11,83.25Z" transform="translate(-18.08 -18.74)"/><path class="cls-1" d="M49.72,74.25a4.68,4.68,0,0,0-6.42,4.92.41.41,0,0,0,.81-.11,3.84,3.84,0,0,1,5.18-3.78C49.88,75.51,50.3,74.52,49.72,74.25Z" transform="translate(-18.08 -18.74)"/><path class="cls-1" d="M58.56,73.13c-.33-1.87-2.22-3.1-3.9-3.63-.65-.21-1.12.83-.47,1.11a6.15,6.15,0,0,1,3,2c.64,1,.53,2.65-.74,3.11-.5.18-.31,1,.22.81A2.89,2.89,0,0,0,58.56,73.13Z" transform="translate(-18.08 -18.74)"/><path class="cls-1" d="M65,65.52c-.57.47.17,1.4.79,1a2.68,2.68,0,0,1,4.09,2,.48.48,0,0,0,1,0C71,65.69,67.2,63.71,65,65.52Z" transform="translate(-18.08 -18.74)"/><path class="cls-1" d="M63.86,60.56c-3.59.84-5,5.54-2.72,8.33.35.43,1.07-.13.77-.59a4.43,4.43,0,0,1,2.27-6.57A.61.61,0,0,0,63.86,60.56Z" transform="translate(-18.08 -18.74)"/><path class="cls-1" d="M65.64,54c-.69.32-.19,1.41.51,1.21a4.27,4.27,0,0,1,5.56,3.39c.08.64,1.07.68,1.05,0C72.65,55.22,68.79,52.54,65.64,54Z" transform="translate(-18.08 -18.74)"/><path class="cls-1" d="M73.24,49.77a3.73,3.73,0,0,1-4.39-3.16c-.06-.64-1.06-.67-1,0,.14,2.77,3,5.2,5.77,4.43C74.43,50.82,74.06,49.64,73.24,49.77Z" transform="translate(-18.08 -18.74)"/><path class="cls-1" d="M67.37,38.19c-1.75.66-3.82,1.56-4.35,3.55A2.91,2.91,0,0,0,64.8,45.4c.84.26,1.14-1,.36-1.28-1.15-.45-1-2-.43-2.84a7.37,7.37,0,0,1,3.1-2C68.45,39,68,38,67.37,38.19Z" transform="translate(-18.08 -18.74)"/><path class="cls-1" d="M64.94,34a6.28,6.28,0,0,1-6.1.58.61.61,0,1,0-.47,1.11,7,7,0,0,0,7.07-1C65.8,34.35,65.33,33.74,64.94,34Z" transform="translate(-18.08 -18.74)"/><path class="cls-1" d="M53.32,30.9a3.68,3.68,0,0,1-4.5-3.23.4.4,0,0,0-.8,0,4.48,4.48,0,0,0,5.61,4.38A.6.6,0,0,0,53.32,30.9Z" transform="translate(-18.08 -18.74)"/><path class="cls-1" d="M42.45,29.81c-.25-.28-.74.09-.53.41a4.07,4.07,0,0,1-1.26,5.7.6.6,0,0,0,.61,1A4.79,4.79,0,0,0,42.45,29.81Z" transform="translate(-18.08 -18.74)"/><path class="cls-1" d="M37.55,41.44a7.91,7.91,0,0,1-3.61-.4,6.1,6.1,0,0,1-2.66-2.54c-.26-.43-1-.15-.83.35.95,2.63,4.63,4.93,7.38,3.61C38.33,42.22,38.06,41.45,37.55,41.44Z" transform="translate(-18.08 -18.74)"/><path class="cls-1" d="M48.16,35.47a.41.41,0,0,0-.79.21c.63,2.75-1,4.85-3.47,5.85-.53.22-.55,1.22.16,1.13C47.26,42.25,49.15,38.37,48.16,35.47Z" transform="translate(-18.08 -18.74)"/><path class="cls-1" d="M60.92,41.21a5,5,0,0,1-3.57-.13A4.76,4.76,0,0,1,55,38.63a.35.35,0,0,0-.68.19A4.75,4.75,0,0,0,57,42.24a4.7,4.7,0,0,0,4.33,0A.58.58,0,0,0,60.92,41.21Z" transform="translate(-18.08 -18.74)"/><path class="cls-1" d="M28.23,45.68a.37.37,0,0,0-.19.72,3.77,3.77,0,0,1,2.13,5.43.52.52,0,0,0,.89.52A4.61,4.61,0,0,0,28.23,45.68Z" transform="translate(-18.08 -18.74)"/><path class="cls-1" d="M34.23,56.44a7,7,0,0,1-8.6-2c-.32-.39-.94.11-.69.53,1.9,3.17,6.69,4.57,9.87,2.45A.58.58,0,0,0,34.23,56.44Z" transform="translate(-18.08 -18.74)"/><path class="cls-1" d="M34.34,63.15c-.46-.19-1.06.37-.59.76,1.56,1.28,2,3.91.06,5.11a.48.48,0,0,0,.49.83C36.61,68.55,37.06,64.3,34.34,63.15Z" transform="translate(-18.08 -18.74)"/><path class="cls-1" d="M49.5,66.08c-3-2.64-8.09-1-9.19,2.74-.2.67.8.92,1,.28a4.86,4.86,0,0,1,7.41-2C49.33,67.45,50,66.54,49.5,66.08Z" transform="translate(-18.08 -18.74)"/><path class="cls-1" d="M41.9,54.24a.57.57,0,0,0-.88.69c1.18,1.9,1.39,4.1-.21,5.87a.47.47,0,0,0,.66.66C43.42,59.69,43.87,56.19,41.9,54.24Z" transform="translate(-18.08 -18.74)"/><path class="cls-1" d="M44.45,49.14a10.82,10.82,0,0,1-8.63-.92.39.39,0,0,0-.4.68,10.67,10.67,0,0,0,9.35,1.41C45.5,50.07,45.19,48.92,44.45,49.14Z" transform="translate(-18.08 -18.74)"/><path class="cls-1" d="M50.9,42a.43.43,0,0,0-.44.75,2.86,2.86,0,0,1,.16,4.67c-.63.44,0,1.49.61,1C53.46,47,53.38,43.14,50.9,42Z" transform="translate(-18.08 -18.74)"/><path class="cls-1" d="M52.5,58.71a3.33,3.33,0,0,1-3.22-5,.45.45,0,0,0-.77-.45,4.25,4.25,0,0,0,4,6.64C53.23,59.79,53.28,58.66,52.5,58.71Z" transform="translate(-18.08 -18.74)"/><path class="cls-1" d="M57.85,56.58a6.32,6.32,0,0,1-3.5,5.71c-.54.27-.06,1.06.48.81A7.1,7.1,0,0,0,59,56.58.59.59,0,0,0,57.85,56.58Z" transform="translate(-18.08 -18.74)"/><path class="cls-1" d="M64,50.08a6.78,6.78,0,0,0-7.11-1.85c-1.25.44-2.79,2.57-1,3.3.44.18.73-.53.32-.75-1.16-.61,1.39-1.61,1.57-1.64a5.39,5.39,0,0,1,1.92,0A6.3,6.3,0,0,1,63.12,51,.63.63,0,0,0,64,50.08Z" transform="translate(-18.08 -18.74)"/></svg>