<svg id="Layer_1" data-name="Layer 1" xmlns="http://www.w3.org/2000/svg" viewBox="0 0 79.19 78.41"><defs><style>.cls-1{fill:#fff;}</style></defs><path class="cls-1" d="M73.65,19.67C61,9.39,43.12,8.58,29.1,16.67,14.5,25.08,7.25,42.34,10.53,58.76c3.7,18.51,22.36,32.85,41.35,30.63a.81.81,0,0,0,.55-.3,40.14,40.14,0,0,0,34.41-26C92.51,47.53,86.25,29.89,73.65,19.67ZM86.75,56C84.08,73.3,68.23,86.82,50.86,87.34a.85.85,0,0,0-.76.48C35,87.5,20.53,79.73,14.46,65.24c-6.21-14.83-2-33.16,10.44-43.43C36.83,12,54.57,10,68,17.92,80.81,25.55,89.06,41,86.75,56Z" transform="translate(-9.75 -11.21)"/><path class="cls-1" d="M65.6,27.28c-9.18-6.79-22.48-7-32.06-.87S19.18,44.91,21.41,56C24,69,36.62,78.45,49.69,78a.76.76,0,0,0,.69.29c11.43-.88,21.85-8.56,25.46-19.58C79.51,47.49,75.06,34.28,65.6,27.28ZM50.38,76.49a.86.86,0,0,0-.59.29c-14-.41-26.69-10.66-27.31-25.22a26.6,26.6,0,0,1,25-27.77C62,22.92,74.26,34.21,75.25,48.63S64.49,75.24,50.38,76.49Z" transform="translate(-9.75 -11.21)"/></svg>