<svg id="Layer_1" data-name="Layer 1" xmlns="http://www.w3.org/2000/svg" viewBox="0 0 65.91 37.01"><defs><style>.cls-1{fill:#59bdc5;}</style></defs><path class="cls-1" d="M20.46,65a6.82,6.82,0,0,0,6.92-3.66c1,2,2.5,3.61,4.9,3.76,2.87.18,4.85-1.56,6.22-3.77.69,2.18,2.06,4,4.63,4.29s4.13-1.25,5.12-3.21a4.57,4.57,0,0,0,4.21,2.84,6.14,6.14,0,0,0,5.39-2.79c.54,2.06,1.76,3.77,4.23,4.11,3.12.41,5.14-1.48,6.42-3.93A6.38,6.38,0,0,0,75,66.19a6,6,0,0,0,4.14-9.75c-.68-.83-1.86.23-1.42,1.1,1.46,2.86,0,6.51-3.54,6.45-3-.06-4.62-2.91-4.18-5.62,0-.19.09-.38.12-.56a1.14,1.14,0,0,0-2.19-.6c-.06.23-.11.47-.15.7-.65,2.83-2.17,7.36-5.77,6.33-2.76-.79-2.35-4.84-2.13-7,.14-1.28-2-1.58-2.25-.31-.47,2.47-1.44,5.47-4.29,6-3.43.57-3.7-3.11-3.68-5.57,0-1.25-2.08-1.62-2.26-.3-.31,2.21-.64,5.58-3.28,6.17-3.27.75-3.87-3.41-4-5.73a1.16,1.16,0,0,0-2.26-.3c-.84,2.47-2.7,6.55-6.1,5.56-2.27-.66-3-3.58-3.54-5.56a1.16,1.16,0,0,0-2.26.3c.13,2.72-2,5.52-4.9,5.34a4.92,4.92,0,0,1-4.24-5.62c.23-1.45-2-2.07-2.22-.61A7.28,7.28,0,0,0,20.46,65Z" transform="translate(-14.57 -29.62)"/><path class="cls-1" d="M20.46,52a6.8,6.8,0,0,0,6.92-3.65c1,2,2.5,3.6,4.9,3.76,2.87.18,4.85-1.56,6.22-3.77.69,2.18,2.06,4,4.63,4.28s4.13-1.24,5.12-3.21a4.57,4.57,0,0,0,4.21,2.85,6.14,6.14,0,0,0,5.39-2.79c.54,2.06,1.76,3.77,4.23,4.1,3.12.42,5.14-1.47,6.42-3.92A6.38,6.38,0,0,0,75,53.14a6,6,0,0,0,4.14-9.75c-.68-.83-1.86.23-1.42,1.09,1.46,2.87,0,6.52-3.54,6.46-3-.06-4.62-2.91-4.18-5.62,0-.19.09-.38.12-.56a1.14,1.14,0,0,0-2.19-.61c-.06.24-.11.48-.15.71-.65,2.83-2.17,7.36-5.77,6.33-2.76-.79-2.35-4.85-2.13-7,.14-1.28-2-1.58-2.25-.31-.47,2.47-1.44,5.47-4.29,5.94-3.43.57-3.7-3.1-3.68-5.56,0-1.25-2.08-1.62-2.26-.3-.31,2.21-.64,5.57-3.28,6.17-3.27.74-3.87-3.41-4-5.73a1.16,1.16,0,0,0-2.26-.3c-.84,2.47-2.7,6.55-6.1,5.56-2.27-.67-3-3.58-3.54-5.56a1.16,1.16,0,0,0-2.26.3c.13,2.72-2,5.52-4.9,5.33a4.91,4.91,0,0,1-4.24-5.61c.23-1.45-2-2.07-2.22-.61A7.26,7.26,0,0,0,20.46,52Z" transform="translate(-14.57 -29.62)"/><path class="cls-1" d="M20.46,38.9a6.8,6.8,0,0,0,6.92-3.65c1,2,2.5,3.6,4.9,3.75,2.87.19,4.85-1.55,6.22-3.77.69,2.19,2.06,4.05,4.63,4.29s4.13-1.24,5.12-3.21a4.54,4.54,0,0,0,4.21,2.84,6.1,6.1,0,0,0,5.39-2.79c.54,2.07,1.76,3.78,4.23,4.11,3.12.42,5.14-1.48,6.42-3.92A6.38,6.38,0,0,0,75,40.09a6,6,0,0,0,4.14-9.75c-.68-.83-1.86.23-1.42,1.09,1.46,2.86,0,6.52-3.54,6.46-3-.06-4.62-2.91-4.18-5.62,0-.19.09-.38.12-.56a1.14,1.14,0,0,0-2.19-.61c-.06.24-.11.47-.15.71-.65,2.83-2.17,7.36-5.77,6.33-2.76-.79-2.35-4.85-2.13-7,.14-1.28-2-1.57-2.25-.3-.47,2.47-1.44,5.47-4.29,5.94-3.43.57-3.7-3.1-3.68-5.56,0-1.25-2.08-1.62-2.26-.31-.31,2.22-.64,5.58-3.28,6.18-3.27.74-3.87-3.41-4-5.73a1.16,1.16,0,0,0-2.26-.3c-.84,2.47-2.7,6.54-6.1,5.56-2.27-.67-3-3.58-3.54-5.56a1.16,1.16,0,0,0-2.26.3c.13,2.71-2,5.52-4.9,5.33a4.91,4.91,0,0,1-4.24-5.61c.23-1.45-2-2.07-2.22-.61A7.26,7.26,0,0,0,20.46,38.9Z" transform="translate(-14.57 -29.62)"/></svg>