<svg id="Layer_1" data-name="Layer 1" xmlns="http://www.w3.org/2000/svg" viewBox="0 0 83.01 42.5"><defs><style>.cls-1{fill:#ea4a8d;}</style></defs><path class="cls-1" d="M85.72,31.7c-4.68-3.48-10.23.55-12,4.87-1.55,3.84.57,7.76-1.14,11.67a7.91,7.91,0,0,1-7.42,5.13,8.5,8.5,0,0,1-7.27-4c-3-5.19-3.71-10.27-8.56-14.37C41.32,28.17,29,26.41,20,32.35,11.06,38.2,5.76,50.84,10,61.05c4.11,10,19.16,6.53,16.61-4.58C25.08,50,31.18,43.21,37.42,48.28c3.3,2.68,3.57,8.1,5.93,11.54a26.39,26.39,0,0,0,13,9.92,25.65,25.65,0,0,0,28.17-7.33C91.36,54.32,95.49,39,85.72,31.7Z" transform="translate(-8.49 -28.75)"/></svg>