<svg id="Layer_1" data-name="Layer 1" xmlns="http://www.w3.org/2000/svg" xmlns:xlink="http://www.w3.org/1999/xlink" viewBox="0 0 39.39 71.2"><defs><style>.cls-1{fill:none;}.cls-2{fill:#1c1c1b;}.cls-3{fill:url(#Motivo_nuevo_4);}</style><pattern id="Motivo_nuevo_4" data-name="Motivo nuevo 4" width="47.27" height="47.27" patternUnits="userSpaceOnUse" viewBox="0 0 47.27 47.27"><rect class="cls-1" width="47.27" height="47.27"/><path class="cls-2" d="M48,48.73a80.9,80.9,0,0,0-9.77-9.38c-.75-.57-1.42.58-.93,1.2a123.67,123.67,0,0,0,9.2,9.68C47.5,51.2,49,49.72,48,48.73Z"/><path class="cls-2" d="M51.89,33.77c-1.39,1.13-2.8,2.24-4.18,3.38-1.2,1-2.76,2-3.51,3.38a.61.61,0,0,0,.68.89c1.61-.44,3-1.84,4.33-2.84s2.81-2.19,4.2-3.29C54.5,34.44,53,32.91,51.89,33.77Z"/><path class="cls-2" d="M43,27.73c-.56,2.05-1.28,5.16-.48,7.21a.7.7,0,0,0,1.33,0,14,14,0,0,0,.54-3.31c.16-1.12.41-2.23.64-3.34A1.05,1.05,0,0,0,43,27.73Z"/><path class="cls-2" d="M50.14,22.2a60,60,0,0,0-9.39-2.44c-.85-.13-1.62,1.13-.65,1.55a62.63,62.63,0,0,0,9.49,2.9A1,1,0,0,0,50.14,22.2Z"/><path class="cls-2" d="M56.31,28.38l-.05-.05a1,1,0,0,0-1.21-.16,27.43,27.43,0,0,1-5,.29c-1.31.09-2.71-.12-3.71.82a.56.56,0,0,0,.11.86c1.24.93,3.45.38,4.93.31,1.27-.05,3.61.3,4.67-.42A1.07,1.07,0,0,0,56.31,28.38Z"/><path class="cls-2" d="M51.72,9.86a35.28,35.28,0,0,0-3.32,3A42.87,42.87,0,0,0,45,16.26c-.54.65.17,1.83,1,1.27a39.16,39.16,0,0,0,3.42-2.88,35.84,35.84,0,0,0,3.52-3.22C53.63,10.63,52.7,9.15,51.72,9.86Z"/><path class="cls-2" d="M50.45,6.38a12.06,12.06,0,0,0-3.6,0c-1.32.09-2.65.17-4,.32s-1.37,2.18,0,2.1,2.84-.25,4.26-.4a12,12,0,0,0,3.48-.66A.74.74,0,0,0,50.45,6.38Z"/><path class="cls-2" d="M41.19,1.68a14.65,14.65,0,0,0-3.41,3.26A21.57,21.57,0,0,0,35,8.67a1,1,0,0,0,1.54,1.19,22.47,22.47,0,0,0,2.71-3.49c.94-1.28,2-2.47,2.9-3.76C42.51,2,41.74,1.35,41.19,1.68Z"/><path class="cls-2" d="M42.11,12.61A22.23,22.23,0,0,0,37,14.08c-1.43.49-3.38.82-4.63,1.69A1.1,1.1,0,0,0,32,17.24l.07.13a1,1,0,0,0,1.69,0,12.83,12.83,0,0,1,2.41-.81l2.08-.76a20.15,20.15,0,0,0,4.25-1.86C43,13.58,42.87,12.53,42.11,12.61Z"/><path class="cls-2" d="M38.7,28.22a16.28,16.28,0,0,0-2.8-3.46l-1.42-1.57a2.71,2.71,0,0,0-1.24-1,1.06,1.06,0,0,0-1.2.49l-.05.1a1.05,1.05,0,0,0,.37,1.41l.06.05a.94.94,0,0,0,.24.13l.18.18.57.62c.48.52,1,1,1.45,1.54a13.88,13.88,0,0,0,2.77,2.59A.79.79,0,0,0,38.7,28.22Z"/><path class="cls-2" d="M37.74,33.77a18.26,18.26,0,0,0-4,.93,20.28,20.28,0,0,0-3.94,1.47A1,1,0,0,0,30.52,38a28.66,28.66,0,0,0,4-1.41A22,22,0,0,0,38.09,35,.69.69,0,0,0,37.74,33.77Z"/><path class="cls-2" d="M33.75,46.54c-.15-1.31-.23-2.63-.43-3.93s-2-.86-2,.27A23.46,23.46,0,0,0,32.6,51c.34.82,1.64.79,1.64-.22A33.78,33.78,0,0,0,33.75,46.54Z"/><path class="cls-2" d="M29,46.82a16,16,0,0,0-3.66-.58,27.39,27.39,0,0,0-4-.48A1,1,0,0,0,21,47.64a16.25,16.25,0,0,0,4,.6,11.64,11.64,0,0,0,3.95,0A.73.73,0,0,0,29,46.82Z"/><path class="cls-2" d="M26.6,42c-.8-1.19-1.75-2.26-2.65-3.37A23.41,23.41,0,0,0,21,35.1a1,1,0,0,0-1.49,1.15,16.28,16.28,0,0,0,2.62,3.42A27.9,27.9,0,0,0,25.29,43C26,43.55,27.16,42.81,26.6,42Z"/><path class="cls-2" d="M18.79,40.76c-1.35-.49-2.78,1.35-3.67,2.16a48.35,48.35,0,0,0-4.18,4.29c-.88,1,.56,2.51,1.49,1.5,1.06-1.16,2.08-2.34,3.17-3.46S17.7,42.64,19,42A.67.67,0,0,0,18.79,40.76Z"/><path class="cls-2" d="M6.39,48.31c-.17-1.72-.22-3.45-.32-5.18a1,1,0,0,0-2.09,0,36.4,36.4,0,0,0,.37,5.32c.17,1.23.07,2.77,1.25,3.44a.45.45,0,0,0,.53-.06C7,50.82,6.5,49.55,6.39,48.31Z"/><path class="cls-2" d="M13.7,40.57c-.87-.8-1.74-1.61-2.63-2.4S9.55,36.5,8.5,36.44a.71.71,0,0,0-.72.71c.14,1.07,1.11,1.74,1.84,2.47s1.71,1.65,2.57,2.47S14.72,41.51,13.7,40.57Z"/><path class="cls-2" d="M18.29,26.66c-1.27,1.26-2.47,2.58-3.67,3.88a11,11,0,0,0-2.38,3.36.7.7,0,0,0,1.16.68c2-2.26,4.31-4.23,6.38-6.42A1.06,1.06,0,0,0,18.29,26.66Z"/><path class="cls-2" d="M28.31,25.77c-.7,1.2-1.17,2.56-1.76,3.82A36.54,36.54,0,0,0,25,33.15c-.26.74.84,1.42,1.35.79a20.33,20.33,0,0,0,2.13-3.56,22.36,22.36,0,0,0,1.71-3.84A1,1,0,0,0,28.31,25.77Z"/><path class="cls-2" d="M26.1,24.37c-.51-1.27-1.81-2.06-2.76-3s-2-2.3-3-3.41a1,1,0,0,0-1.63,1.25c1.48,2.47,3.89,4,5.82,6.07C25.15,25.9,26.45,25.25,26.1,24.37Z"/><path class="cls-2" d="M13.47,25.18a31.66,31.66,0,0,0-2.25-3.91,34.23,34.23,0,0,0-2.29-3.52c-.76-.94-2,.26-1.57,1.21a29.14,29.14,0,0,0,2.4,3.82,24.51,24.51,0,0,0,2.47,3.35C12.89,26.84,13.8,25.94,13.47,25.18Z"/><path class="cls-2" d="M16.76,10.64c-.92,1-1.7,2.18-2.52,3.28-.67.91-1.85,2-1.7,3.22a.84.84,0,0,0,1.65.22c.33-1,1.5-2,2.18-2.89a31.18,31.18,0,0,0,2-2.58A1,1,0,0,0,16.76,10.64Z"/><path class="cls-2" d="M13.07,10.63a11.37,11.37,0,0,0-1.86-3.12A9.06,9.06,0,0,0,8.82,5.08c-.61-.39-1.2.35-.92.92A25.64,25.64,0,0,0,9.6,8.67c.58.88,1,1.9,1.65,2.73S13.45,11.81,13.07,10.63Z"/><path class="cls-2" d="M25.05,7.34c-2.38-1.23-4.59-2.69-6.93-3.95a.74.74,0,0,0-.9,1.16A23,23,0,0,0,24,9.14C25.19,9.72,26.26,8,25.05,7.34Z"/><path class="cls-2" d="M30.54,6.69C29.74,7.82,29,9,28.18,10.08S26.56,12,25.83,13c-.44.62.44,1.51,1.07,1.07a19.81,19.81,0,0,0,5.44-6.32A1,1,0,0,0,30.54,6.69Z"/><path class="cls-2" d="M29.19,17.92c-2.18-.59-4.32-1.62-6.51-2.06a.74.74,0,0,0-.57,1.35c1.78,1.36,4.39,2.11,6.51,2.77A1.07,1.07,0,0,0,29.19,17.92Z"/><path class="cls-2" d="M.77,48.73A80.9,80.9,0,0,0-9,39.35c-.75-.57-1.42.58-.93,1.2a123.67,123.67,0,0,0,9.2,9.68C.23,51.2,1.7,49.72.77,48.73Z"/><path class="cls-2" d="M4.62,33.77C3.23,34.9,1.82,36,.44,37.15c-1.2,1-2.76,2-3.51,3.38a.61.61,0,0,0,.68.89c1.61-.44,3-1.84,4.33-2.84s2.8-2.19,4.2-3.29C7.23,34.44,5.7,32.91,4.62,33.77Z"/><path class="cls-2" d="M2.87,22.2a60,60,0,0,0-9.39-2.44c-.85-.13-1.62,1.13-.65,1.55a62.63,62.63,0,0,0,9.49,2.9A1,1,0,0,0,2.87,22.2Z"/><path class="cls-2" d="M9,28.38l0-.05a1,1,0,0,0-1.21-.16,27.43,27.43,0,0,1-5,.29c-1.31.09-2.71-.12-3.71.82a.56.56,0,0,0,.11.86c1.24.93,3.45.38,4.93.31,1.27-.05,3.61.3,4.67-.42A1.07,1.07,0,0,0,9,28.38Z"/><path class="cls-2" d="M4.45,9.86a35.28,35.28,0,0,0-3.32,3,42.87,42.87,0,0,0-3.38,3.36c-.54.65.17,1.83,1,1.27a39.16,39.16,0,0,0,3.42-2.88,35.84,35.84,0,0,0,3.52-3.22C6.36,10.63,5.43,9.15,4.45,9.86Z"/><path class="cls-2" d="M3.18,6.38a12.06,12.06,0,0,0-3.6,0c-1.32.09-2.65.17-4,.32s-1.37,2.18,0,2.1,2.84-.25,4.26-.4a12,12,0,0,0,3.48-.66A.74.74,0,0,0,3.18,6.38Z"/><path class="cls-2" d="M48,1.46a80.9,80.9,0,0,0-9.77-9.38c-.75-.57-1.42.58-.93,1.2A123.67,123.67,0,0,0,46.54,3C47.5,3.93,49,2.45,48,1.46Z"/><path class="cls-2" d="M33.75-.73c-.15-1.31-.23-2.63-.43-3.93s-2-.86-2,.27A23.46,23.46,0,0,0,32.6,3.73c.34.82,1.64.79,1.64-.22A33.78,33.78,0,0,0,33.75-.73Z"/><path class="cls-2" d="M29-.45A16,16,0,0,0,25.29-1a27.39,27.39,0,0,0-4-.48A1,1,0,0,0,21,.37,16.25,16.25,0,0,0,25,1,11.64,11.64,0,0,0,29,1,.73.73,0,0,0,29-.45Z"/><path class="cls-2" d="M18.79-6.51C17.44-7,16-5.16,15.12-4.35A48.35,48.35,0,0,0,10.94-.06c-.88,1,.56,2.51,1.49,1.5S14.51-.9,15.6-2,17.7-4.63,19-5.3A.67.67,0,0,0,18.79-6.51Z"/><path class="cls-2" d="M6.39,1c-.17-1.72-.22-3.45-.32-5.18A1,1,0,0,0,4-4.14a36.4,36.4,0,0,0,.37,5.32C4.52,2.41,4.42,4,5.6,4.62a.45.45,0,0,0,.53-.06C7,3.55,6.5,2.28,6.39,1Z"/><path class="cls-2" d="M.77,1.46A80.9,80.9,0,0,0-9-7.92c-.75-.57-1.42.58-.93,1.2A123.67,123.67,0,0,0-.73,3C.23,3.93,1.7,2.45.77,1.46Z"/></pattern></defs><path class="cls-3" d="M67.59,46.63C64.92,31.25,48.06,12.89,31,16.36h0a2,2,0,0,0-2.32,2.08c.15,10.88.68,21.74.72,32.62S28.54,72.86,29,83.68a2.25,2.25,0,0,0,.54,2.93,2.67,2.67,0,0,0,3.11,0,2.08,2.08,0,0,0,.9-.1C51.06,80.87,71.31,68,67.59,46.63Z" transform="translate(-28.64 -15.93)"/></svg>