<svg id="Layer_1" data-name="Layer 1" xmlns="http://www.w3.org/2000/svg" viewBox="0 0 37.46 70.3"><defs><style>.cls-1{fill:#fff;}</style></defs><path class="cls-1" d="M68.41,69.49a.55.55,0,0,0,0-.18.46.46,0,0,0-.09-.78c-3.84-2-8.16-2.75-12-4.74a16.32,16.32,0,0,1-8.82-13C46.36,39.33,56.29,31.16,67,30.8a.89.89,0,0,0,.53-.19.59.59,0,0,0,.6-.49,58.13,58.13,0,0,0-.09-13.95.84.84,0,0,0-.61-.74.93.93,0,0,0-.91-1.19C47.19,14.53,31.07,30,31.1,49.55,31.12,68,47.23,86,66.53,84.45a.58.58,0,0,0,0-1.16C48.32,81.3,33,69.13,33,49.55c0-18.49,15.2-33,33.45-33.34A58.16,58.16,0,0,0,67,28.9c-11,.3-21.32,8.19-21.46,19.78C45.35,61.39,56,66.8,66.81,69.23a1,1,0,0,0-.07.26c-.26,4.76-.48,10,.68,14.6a.54.54,0,0,0,1-.14C68.67,79.14,68.19,74.32,68.41,69.49Z" transform="translate(-31.1 -14.24)"/></svg>