<svg id="Layer_1" data-name="Layer 1" xmlns="http://www.w3.org/2000/svg" viewBox="0 0 74.37 69.14"><defs><style>.cls-1{fill:#1c1c1b;}</style></defs><path class="cls-1" d="M64.71,22.46C54.58,14.29,39.33,13,28.19,19.88c-10.66,6.59-16.93,19.78-15,32.21,2.18,14.36,15.6,26.46,30.21,26.71a.48.48,0,0,0,.48-.29,9.85,9.85,0,0,0,6-1.08C60.39,75.68,70,68.66,74,58.45,78.92,46.08,75.11,30.84,64.71,22.46ZM41,77.12a.29.29,0,0,0-.31.13c-.69-.14-1.37-.3-2-.48,1,0,2,.07,3,.09a.78.78,0,0,0,0,.4C41.49,77.22,41.26,77.18,41,77.12Zm4.37-.84h0c-2.65-.15-5.33,0-8,.09,0,0,0,0-.08,0-13.11-4-23.47-15.47-22.8-30,.73-15.78,13.69-29.13,29.63-29.22A29.89,29.89,0,0,1,74.36,46.93C74.52,63.16,61,75.66,45.4,76.28Z" transform="translate(-12.81 -15.43)"/><path class="cls-1" d="M75.77,28.23c-10.14-8.17-25.39-9.46-36.53-2.58-10.66,6.59-16.93,19.78-15,32.21,2.18,14.36,15.61,26.47,30.21,26.71a.51.51,0,0,0,.49-.28,10,10,0,0,0,6-1.08c10.59-1.76,20.17-8.77,24.22-19C90,51.85,86.16,36.62,75.77,28.23ZM52.08,82.89a.29.29,0,0,0-.3.13c-.7-.13-1.38-.3-2.06-.47l3,.09a1.09,1.09,0,0,0,0,.4C52.54,83,52.31,83,52.08,82.89Zm4.37-.84h0c-2.65-.14-5.32,0-8,.1a.15.15,0,0,0-.08,0c-13.12-4-23.48-15.47-22.81-30C26.3,36.39,39.26,23,55.2,23A29.89,29.89,0,0,1,85.42,52.71C85.57,68.93,72.07,81.43,56.45,82.05Z" transform="translate(-12.81 -15.43)"/></svg>