<svg id="Layer_1" data-name="Layer 1" xmlns="http://www.w3.org/2000/svg" viewBox="0 0 66.35 65.06"><defs><style>.cls-1{fill:#1c1c1b;}</style></defs><path class="cls-1" d="M80,43.27a2.09,2.09,0,0,0-2-2c-6.55-.23-13.57,0-20,1.82A77.56,77.56,0,0,1,59,22.65a1.91,1.91,0,0,0-1.81-2.37c-6.19-.18-12.4-.11-18.59-.12a1.94,1.94,0,0,0-1.93,1.93c.56,6.79.63,13.6,1.09,20.38-6.55-1.56-13.64-1.49-20.21-.76a2.22,2.22,0,0,0-2.17,2.17l.71,14.86a2.21,2.21,0,0,0,2.19,2.19c6.46-.55,12.89-1.15,19.32-1.93A70.7,70.7,0,0,0,37,70.56c0,3.37-.65,8.16.93,11.3,3,5.91,13.83,2.49,18.53,1.11a2,2,0,0,0,1.42-2.48c-2.91-6.93-2.93-13.24-2.1-20.56a1.43,1.43,0,0,0-.6-1.39,1.25,1.25,0,0,0,.41.16,175.84,175.84,0,0,0,24,2.13,2.11,2.11,0,0,0,2.1-2.1ZM54.8,58.33a2,2,0,0,0-2.62,1.11c-2.07,6.51-1.27,13.72,1,20.11a45.23,45.23,0,0,1-6.56,1c-5,.37-5.26-3.15-5.38-7.18-.14-4.92-.07-9.86-.68-14.75l.35,0c1.86-.25,1.39-3.28-.44-3.24C33.74,55.5,27,56,20.32,56.42c-.18-3.52-.35-7-.53-10.56,7-.5,13.56.34,20.57,1.26,2.24.3,2.44-3.11.51-3.76l-.48-.14A96.79,96.79,0,0,0,40.63,24c4.78,0,9.57.07,14.36,0a80.46,80.46,0,0,0-.79,19.12A1.93,1.93,0,0,0,55.82,45c-.13,1,.44,2.15,1.72,2,6.29-.82,12.32-1.69,18.63-1.62l1.11,11.2c-7.09-.31-14.16-.87-21.23-1.48C54.29,54.87,53.68,57.36,54.8,58.33Z" transform="translate(-15.35 -20.16)"/></svg>