<svg id="Layer_1" data-name="Layer 1" xmlns="http://www.w3.org/2000/svg" viewBox="0 0 17.05 91.94"><defs><style>.cls-1{fill:#fff;}</style></defs><path class="cls-1" d="M54.35,31.13A99.74,99.74,0,0,0,48.24,3.65a.62.62,0,0,0-1.18,0c-2.69,9-5.81,17.76-9,26.55a.51.51,0,0,0,0,.2.57.57,0,0,0,0,1.14c5.07.08,10.09.25,15.14.64.23.54,1.1.51,1.18-.08A.68.68,0,0,0,54.35,31.13ZM39,30.36c3.36-8,6.17-16.28,8.72-24.6a98.9,98.9,0,0,1,5.38,25.11A97.67,97.67,0,0,0,39,30.36Z" transform="translate(-37.54 -3.21)"/><path class="cls-1" d="M54.35,51.7a99.74,99.74,0,0,0-6.11-27.48.62.62,0,0,0-1.18,0c-2.69,9-5.81,17.76-9,26.55a.53.53,0,0,0,0,.21.57.57,0,0,0,0,1.13c5.07.08,10.09.25,15.14.64.23.54,1.1.51,1.18-.08A.68.68,0,0,0,54.35,51.7ZM39,50.93c3.36-8,6.17-16.28,8.72-24.6a98.9,98.9,0,0,1,5.38,25.11A97.67,97.67,0,0,0,39,50.93Z" transform="translate(-37.54 -3.21)"/><path class="cls-1" d="M54.35,73.16a99.81,99.81,0,0,0-6.11-27.49.62.62,0,0,0-1.18,0c-2.69,9-5.81,17.76-9,26.56a.49.49,0,0,0,0,.2.57.57,0,0,0,0,1.14c5.07.08,10.09.25,15.14.63.23.54,1.1.51,1.18-.08A.67.67,0,0,0,54.35,73.16ZM39,72.39c3.36-8,6.17-16.29,8.72-24.61a98.9,98.9,0,0,1,5.38,25.11A97.67,97.67,0,0,0,39,72.39Z" transform="translate(-37.54 -3.21)"/><path class="cls-1" d="M54.35,93.73a99.81,99.81,0,0,0-6.11-27.49.62.62,0,0,0-1.18,0c-2.69,9-5.81,17.76-9,26.56a.49.49,0,0,0,0,.2.57.57,0,0,0,0,1.14c5.07.08,10.09.25,15.14.63.23.54,1.1.52,1.18-.08A.67.67,0,0,0,54.35,93.73ZM39,93c3.36-8,6.17-16.29,8.72-24.61a98.9,98.9,0,0,1,5.38,25.11A97.67,97.67,0,0,0,39,93Z" transform="translate(-37.54 -3.21)"/></svg>