<svg id="Layer_1" data-name="Layer 1" xmlns="http://www.w3.org/2000/svg" viewBox="0 0 74.37 20.16"><defs><style>.cls-1{fill:#f5bc2a;}</style></defs><path class="cls-1" d="M87,52.23A15.23,15.23,0,0,0,68.31,41c-3.67,1-6.29,3.49-9,6-2.11,2-2.55,1.56-4.71-.37-2.79-2.48-5.64-4.78-9.42-5.48A15.42,15.42,0,0,0,33.46,43.6a33.78,33.78,0,0,0-4.14,3.69c-.62.61-1.5,1.88-2.39,2.08-3.12.68-4.29-5.72-5.42-7.31-2.14-3-7.34-3-8.36,1.09C11,51.64,19.19,61,27.82,60c4-.44,6.94-3,9.7-5.71,2-2,4.11-3.59,6.93-2.12s4.89,4.53,8,6a11.48,11.48,0,0,0,11.29-.88c2.44-1.59,4.43-4.93,7.22-5.85s5.07,1,5.7,3.68C78.22,61.84,88.61,59,87,52.23Z" transform="translate(-12.82 -39.92)"/></svg>