<svg id="Layer_1" data-name="Layer 1" xmlns="http://www.w3.org/2000/svg" viewBox="0 0 83.02 43.39"><defs><style>.cls-1{fill:#59bdc5;}</style></defs><path class="cls-1" d="M89,31.86c-3,2.54-6.12,4.89-9.2,7.33-3-2.72-5.73-5.64-8.71-8.33a1.44,1.44,0,0,0-2.18.51l-.05,0a71.07,71.07,0,0,1-6,5.08,16.83,16.83,0,0,0-3.27,2.37,33.77,33.77,0,0,0-3.3-2.92,70.57,70.57,0,0,0-6.21-5.52,1.11,1.11,0,0,0-1.75.54,55.33,55.33,0,0,0-9.62,7.95,70.22,70.22,0,0,1-7.66-7.38c-.06-1-1.07-2-2.11-1.21L23.4,34.56a27.14,27.14,0,0,0-3.65,2.84,20.8,20.8,0,0,0-9.62-7.23c-1.45-.48-2.29,1.67-1,2.42a35.73,35.73,0,0,1,5.35,3.51,30.81,30.81,0,0,1,4.08,4.61c.82,1,2.31.17,2.43-.93a20.45,20.45,0,0,0,4.2-3l4.06-3.06a34,34,0,0,0,8.47,8,1.38,1.38,0,0,0,1.85-.43,48.3,48.3,0,0,0,5.14-3.87C46.31,36.19,48,35,49.56,33.62c1.22,1.26,2.56,2.42,3.84,3.61l2.21,2.07L57,40.6c.12.11.31.36.46.54a1.79,1.79,0,0,0,.31.57l.11.13a1.46,1.46,0,0,0,1.75.22l.18-.09a1.46,1.46,0,0,0,.7-1c1.58-.14,3.21-1.59,4.4-2.44A44.31,44.31,0,0,0,70.38,34a80.56,80.56,0,0,0,8.25,8.07A1.52,1.52,0,0,0,81,41.68,46.4,46.4,0,0,0,91.07,33.9C92.41,32.57,90.42,30.67,89,31.86Z" transform="translate(-8.49 -30.03)"/><path class="cls-1" d="M89,47.34c-3,2.54-6.12,4.89-9.2,7.33-3-2.71-5.73-5.64-8.71-8.33a1.44,1.44,0,0,0-2.18.51l-.05,0a69.25,69.25,0,0,1-6,5.08,17.26,17.26,0,0,0-3.27,2.37,35.15,35.15,0,0,0-3.3-2.92,72.22,72.22,0,0,0-6.21-5.52,1.12,1.12,0,0,0-1.75.54,54.94,54.94,0,0,0-9.62,8A70.31,70.31,0,0,1,31.06,47C31,46,30,45,29,45.8L23.4,50a26.44,26.44,0,0,0-3.65,2.85,20.75,20.75,0,0,0-9.62-7.24c-1.45-.48-2.29,1.67-1,2.43a35,35,0,0,1,5.35,3.51,31.23,31.23,0,0,1,4.08,4.6c.82,1.05,2.31.18,2.43-.92a20.5,20.5,0,0,0,4.2-3l4.06-3.05a34.19,34.19,0,0,0,8.47,8,1.38,1.38,0,0,0,1.85-.42A49.78,49.78,0,0,0,44.69,53c1.62-1.27,3.29-2.51,4.87-3.85,1.22,1.26,2.56,2.42,3.84,3.61l2.21,2.08L57,56.08c.12.12.31.36.46.54a1.69,1.69,0,0,0,.31.57l.11.13a1.46,1.46,0,0,0,1.75.22l.18-.09a1.46,1.46,0,0,0,.7-1c1.58-.13,3.21-1.59,4.4-2.44a42.61,42.61,0,0,0,5.47-4.57,81.71,81.71,0,0,0,8.25,8.08,1.52,1.52,0,0,0,2.32-.4,46.36,46.36,0,0,0,10.12-7.77C92.41,48.05,90.42,46.15,89,47.34Z" transform="translate(-8.49 -30.03)"/><path class="cls-1" d="M89,62.82c-3,2.54-6.12,4.89-9.2,7.33-3-2.71-5.73-5.64-8.71-8.33a1.44,1.44,0,0,0-2.18.51l-.05,0a71.19,71.19,0,0,1-6,5.09,17.2,17.2,0,0,0-3.27,2.36,35.15,35.15,0,0,0-3.3-2.92,72.22,72.22,0,0,0-6.21-5.52,1.12,1.12,0,0,0-1.75.55,54.45,54.45,0,0,0-9.62,7.95,70.22,70.22,0,0,1-7.66-7.38c-.06-1-1.07-2-2.11-1.21L23.4,65.52a26.44,26.44,0,0,0-3.65,2.85,20.75,20.75,0,0,0-9.62-7.24c-1.45-.48-2.29,1.67-1,2.43a35.73,35.73,0,0,1,5.35,3.51,30.81,30.81,0,0,1,4.08,4.61c.82,1,2.31.17,2.43-.93a20.5,20.5,0,0,0,4.2-3l4.06-3.05a34.41,34.41,0,0,0,8.47,8,1.39,1.39,0,0,0,1.85-.43,49.78,49.78,0,0,0,5.14-3.88c1.62-1.27,3.29-2.51,4.87-3.84,1.22,1.26,2.56,2.42,3.84,3.61l2.21,2.07L57,71.56c.12.12.31.36.46.54a1.83,1.83,0,0,0,.31.58l.11.12a1.48,1.48,0,0,0,1.75.23l.18-.09a1.49,1.49,0,0,0,.7-1c1.58-.14,3.21-1.59,4.4-2.45A42.61,42.61,0,0,0,70.38,65,81.71,81.71,0,0,0,78.63,73,1.52,1.52,0,0,0,81,72.65a46.4,46.4,0,0,0,10.12-7.78C92.41,63.53,90.42,61.63,89,62.82Z" transform="translate(-8.49 -30.03)"/></svg>